<?xml version="1.0" encoding="utf-8"?>
<!-- Generator: Adobe Illustrator 23.0.1, SVG Export Plug-In . SVG Version: 6.00 Build 0)  -->
<svg version="1.1" id="Calque_1" xmlns="http://www.w3.org/2000/svg" xmlns:xlink="http://www.w3.org/1999/xlink" x="0px" y="0px"
	 viewBox="0 0 628.5 518" style="enable-background:new 0 0 628.5 518;" xml:space="preserve">
<style type="text/css">
	.st0{fill:none;stroke:#000000;stroke-miterlimit:10;}
	.st1{fill:#FFFFFF;}
</style>
<g>
	<g id="fe9caf64-59ea-4b22-9951-9d7791d0cdc4">
		<g id="a222fa23-a506-4024-ab6f-196e5aa4d125">
			<rect x="0.5" y="419" class="st0" width="93.8" height="98.4"/>
			<rect x="0.5" y="330.4" class="st0" width="69.1" height="83.6"/>
			<rect x="30.1" y="212.4" class="st0" width="64.2" height="93.4"/>
			<polygon class="st0" points="99.3,281.3 99.3,128.8 277,128.8 277,197.6 257.3,202.6 257.3,281.3 			"/>
			<polygon class="st0" points="99,286.5 99,389.5 277,389.5 277,340.5 257,340.5 257,286.5 			"/>
			<rect x="99" y="418.5" class="st0" width="69" height="99"/>
			<rect x="173" y="418.5" class="st0" width="50" height="99"/>
			<rect x="228" y="418.5" class="st0" width="49" height="99"/>
			<rect x="282" y="418.5" class="st0" width="49" height="99"/>
			<rect x="336" y="418.5" class="st0" width="50" height="99"/>
			<rect x="391" y="418.5" class="st0" width="49" height="99"/>
			<rect x="445" y="418.5" class="st0" width="49" height="99"/>
			<rect x="499" y="389.5" class="st0" width="74" height="128"/>
			<rect x="499" y="296.5" class="st0" width="74" height="88"/>
			<polygon class="st0" points="519,291.5 628,291.5 628,148.5 499,177.5 			"/>
			<polygon class="st0" points="494,173.5 573,153.5 574,104.5 514,104.5 			"/>
			<rect x="499" y="0.5" class="st0" width="74" height="99"/>
			<rect x="445" y="0.5" class="st0" width="49" height="99"/>
			<rect x="391" y="0.5" class="st0" width="49" height="99"/>
			<rect x="336" y="0.5" class="st0" width="50" height="99"/>
			<rect x="282" y="0.5" class="st0" width="49" height="99"/>
			<rect x="228" y="0.5" class="st0" width="49" height="99"/>
			<rect x="173" y="0.5" class="st0" width="50" height="99"/>
			<rect x="99" y="0.5" class="st0" width="69" height="99"/>
			<rect x="1" y="0.5" class="st0" width="93" height="99"/>
			<rect x="1" y="104.5" class="st0" width="69" height="83"/>
			<rect x="302" y="296.5" class="st0" width="153" height="93"/>
		</g>
	</g>
</g>
<g>
	<path class="st1" d="M34.3,56.2l-2.1-8.3h1.9c0.8,3.8,1.1,5.5,1.2,6.4h0c0.3-1.5,1.1-4.4,1.6-6.4h1.6c0.4,1.6,1.3,4.8,1.5,6.3h0
		c0.3-1.8,1.1-5,1.4-6.3h1.7L41,56.2h-1.9c-0.4-1.8-1.2-4.5-1.5-5.9h0c-0.3,1.5-1,4.3-1.5,5.9H34.3z"/>
	<path class="st1" d="M43.9,56.2v-0.1c0-1.4,0.6-2.5,2.3-3.7c1.1-0.8,1.5-1.1,1.5-1.8c0-0.7-0.3-1.1-1-1.1c-0.8,0-1.1,0.5-1.2,1.2
		h-1.7c0.1-1.4,1-2.5,2.8-2.5c2,0,2.7,1.2,2.7,2.4c0,1.1-0.5,1.7-1.9,2.7c-1,0.7-1.4,1.1-1.5,1.5h3.7l-0.2,1.4H43.9z"/>
	<path class="st1" d="M56.7,52.2c0,2.2-0.7,4.1-3,4.1c-2.3,0-3-1.9-3-4.1c0-2.2,0.8-4.1,3.1-4.1C55.9,48.2,56.7,50,56.7,52.2z
		 M52.4,52.2c0,1.5,0.2,2.7,1.3,2.7c1.1,0,1.2-1.2,1.2-2.8c0-1.5-0.2-2.7-1.2-2.7C52.7,49.5,52.4,50.5,52.4,52.2z"/>
	<path class="st1" d="M63.2,49.7h-3.2c-0.1,0.4-0.2,1.2-0.2,1.5c0.3-0.2,0.7-0.4,1.4-0.4c1.6,0,2.4,1.1,2.4,2.6c0,1.5-0.8,2.9-3,2.9
		c-1.6,0-2.7-0.8-2.9-2.2h1.7c0.2,0.5,0.5,0.9,1.2,0.9c0.8,0,1.2-0.6,1.2-1.5c0-0.8-0.3-1.4-1.2-1.4c-0.7,0-1,0.3-1.2,0.8L58,52.7
		c0.2-1,0.5-3.3,0.7-4.4h4.8L63.2,49.7z"/>
</g>
<g>
	<path class="st1" d="M120.3,56.2l-2.1-8.3h1.9c0.8,3.8,1.1,5.5,1.2,6.4h0c0.3-1.5,1.1-4.4,1.6-6.4h1.6c0.4,1.6,1.3,4.8,1.5,6.3h0
		c0.3-1.8,1.1-5,1.4-6.3h1.7l-2.2,8.3h-1.9c-0.4-1.8-1.2-4.5-1.5-5.9h0c-0.3,1.5-1,4.3-1.5,5.9H120.3z"/>
	<path class="st1" d="M129.9,56.2v-0.1c0-1.4,0.6-2.5,2.3-3.7c1.1-0.8,1.5-1.1,1.5-1.8c0-0.7-0.3-1.1-1-1.1c-0.8,0-1.1,0.5-1.2,1.2
		h-1.7c0.1-1.4,1-2.5,2.8-2.5c2,0,2.7,1.2,2.7,2.4c0,1.1-0.5,1.7-1.9,2.7c-1,0.7-1.4,1.1-1.5,1.5h3.7l-0.2,1.4H129.9z"/>
	<path class="st1" d="M142.7,52.2c0,2.2-0.7,4.1-3,4.1c-2.3,0-3-1.9-3-4.1c0-2.2,0.8-4.1,3.1-4.1C141.9,48.2,142.7,50,142.7,52.2z
		 M138.4,52.2c0,1.5,0.2,2.7,1.3,2.7c1.1,0,1.2-1.2,1.2-2.8c0-1.5-0.2-2.7-1.2-2.7C138.7,49.5,138.4,50.5,138.4,52.2z"/>
	<path class="st1" d="M147.9,50.2c-0.1-0.4-0.3-0.8-1-0.8c-1.1,0-1.3,1-1.4,2.1c0.3-0.4,0.9-0.7,1.8-0.7c1.4,0,2.5,1.1,2.5,2.6
		c0,1.7-1.1,2.9-2.9,2.9c-2.3,0-3.1-1.8-3.1-4c0-2.1,0.7-4.2,3.1-4.2c1.7,0,2.5,1.1,2.6,2.1H147.9z M148,53.5c0-0.8-0.3-1.4-1.2-1.4
		c-0.8,0-1.2,0.4-1.2,1.4c0,0.6,0.3,1.5,1.2,1.5C147.6,55,148,54.3,148,53.5z"/>
</g>
<g>
	<path class="st1" d="M184.3,56.2l-2.1-8.3h1.9c0.8,3.8,1.1,5.5,1.2,6.4h0c0.3-1.5,1.1-4.4,1.6-6.4h1.6c0.4,1.6,1.3,4.8,1.5,6.3h0
		c0.3-1.8,1.1-5,1.4-6.3h1.7l-2.2,8.3h-1.9c-0.4-1.8-1.2-4.5-1.5-5.9h0c-0.3,1.5-1,4.3-1.5,5.9H184.3z"/>
	<path class="st1" d="M193.9,56.2v-0.1c0-1.4,0.6-2.5,2.3-3.7c1.1-0.8,1.5-1.1,1.5-1.8c0-0.7-0.3-1.1-1-1.1c-0.8,0-1.1,0.5-1.2,1.2
		h-1.7c0.1-1.4,1-2.5,2.8-2.5c2,0,2.7,1.2,2.7,2.4c0,1.1-0.5,1.7-1.9,2.7c-1,0.7-1.4,1.1-1.5,1.5h3.7l-0.2,1.4H193.9z"/>
	<path class="st1" d="M206.7,52.2c0,2.2-0.7,4.1-3,4.1c-2.3,0-3-1.9-3-4.1c0-2.2,0.8-4.1,3.1-4.1C205.9,48.2,206.7,50,206.7,52.2z
		 M202.4,52.2c0,1.5,0.2,2.7,1.3,2.7c1.1,0,1.2-1.2,1.2-2.8c0-1.5-0.2-2.7-1.2-2.7C202.7,49.5,202.4,50.5,202.4,52.2z"/>
	<path class="st1" d="M213.1,48.3v1.3c-1.3,1.8-2.5,4.3-2.8,6.6h-1.8c0.3-2.3,1.7-5.1,2.8-6.5h-3.7v-1.4H213.1z"/>
</g>
<g>
	<path class="st1" d="M238.3,56.2l-2.1-8.3h1.9c0.8,3.8,1.1,5.5,1.2,6.4h0c0.3-1.5,1.1-4.4,1.6-6.4h1.6c0.4,1.6,1.3,4.8,1.5,6.3h0
		c0.3-1.8,1.1-5,1.4-6.3h1.7l-2.2,8.3h-1.9c-0.4-1.8-1.2-4.5-1.5-5.9h0c-0.3,1.5-1,4.3-1.5,5.9H238.3z"/>
	<path class="st1" d="M247.9,56.2v-0.1c0-1.4,0.6-2.5,2.3-3.7c1.1-0.8,1.5-1.1,1.5-1.8c0-0.7-0.3-1.1-1-1.1c-0.8,0-1.1,0.5-1.2,1.2
		h-1.7c0.1-1.4,1-2.5,2.8-2.5c2,0,2.7,1.2,2.7,2.4c0,1.1-0.5,1.7-1.9,2.7c-1,0.7-1.4,1.1-1.5,1.5h3.7l-0.2,1.4H247.9z"/>
	<path class="st1" d="M260.7,52.2c0,2.2-0.7,4.1-3,4.1c-2.3,0-3-1.9-3-4.1c0-2.2,0.8-4.1,3.1-4.1C259.9,48.2,260.7,50,260.7,52.2z
		 M256.4,52.2c0,1.5,0.2,2.7,1.3,2.7c1.1,0,1.2-1.2,1.2-2.8c0-1.5-0.2-2.7-1.2-2.7C256.7,49.5,256.4,50.5,256.4,52.2z"/>
	<path class="st1" d="M261.8,53.9c0-1,0.7-1.6,1.3-1.9c-0.6-0.4-1-0.8-1-1.6c0-1.3,1-2.2,2.8-2.2c1.6,0,2.7,0.8,2.7,2.2
		c0,0.9-0.5,1.4-1,1.6c0.6,0.2,1.3,0.9,1.3,1.9c0,1.6-1.3,2.5-3.1,2.5C263.1,56.3,261.8,55.5,261.8,53.9z M266.1,53.9
		c0-0.8-0.5-1.1-1.3-1.1c-0.9,0-1.3,0.5-1.3,1.1c0,0.7,0.5,1.2,1.3,1.2C265.6,55,266.1,54.7,266.1,53.9z M263.7,50.5
		c0,0.5,0.4,0.9,1.1,0.9c0.7,0,1.1-0.3,1.1-0.9c0-0.6-0.4-1-1.1-1C264.1,49.5,263.7,49.8,263.7,50.5z"/>
</g>
<g>
	<path class="st1" d="M293.3,56.2l-2.1-8.3h1.9c0.8,3.8,1.1,5.5,1.2,6.4h0c0.3-1.5,1.1-4.4,1.6-6.4h1.6c0.4,1.6,1.3,4.8,1.5,6.3h0
		c0.3-1.8,1.1-5,1.4-6.3h1.7l-2.2,8.3h-1.9c-0.4-1.8-1.2-4.5-1.5-5.9h0c-0.3,1.5-1,4.3-1.5,5.9H293.3z"/>
	<path class="st1" d="M302.9,56.2v-0.1c0-1.4,0.6-2.5,2.3-3.7c1.1-0.8,1.5-1.1,1.5-1.8c0-0.7-0.3-1.1-1-1.1c-0.8,0-1.1,0.5-1.2,1.2
		h-1.7c0.1-1.4,1-2.5,2.8-2.5c2,0,2.7,1.2,2.7,2.4c0,1.1-0.5,1.7-1.9,2.7c-1,0.7-1.4,1.1-1.5,1.5h3.7l-0.2,1.4H302.9z"/>
	<path class="st1" d="M315.7,52.2c0,2.2-0.7,4.1-3,4.1c-2.3,0-3-1.9-3-4.1c0-2.2,0.8-4.1,3.1-4.1C314.9,48.2,315.7,50,315.7,52.2z
		 M311.4,52.2c0,1.5,0.2,2.7,1.3,2.7c1.1,0,1.2-1.2,1.2-2.8c0-1.5-0.2-2.7-1.2-2.7C311.7,49.5,311.4,50.5,311.4,52.2z"/>
	<path class="st1" d="M318.6,54.2c0.1,0.5,0.4,0.8,1.1,0.8c1.1,0,1.2-1.4,1.3-2.2c-0.3,0.5-1,0.7-1.6,0.7c-1.6,0-2.6-1.1-2.6-2.5
		c0-1.5,1.1-2.7,2.9-2.7c2.2,0,3,1.7,3,3.7c0,2.2-0.6,4.5-3,4.5c-1.8,0-2.6-1.1-2.7-2.1H318.6z M318.5,50.8c0,0.8,0.5,1.3,1.2,1.3
		c0.8,0,1.2-0.4,1.2-1.3c0-0.5-0.2-1.3-1.2-1.3C318.9,49.5,318.5,50.1,318.5,50.8z"/>
</g>
<g>
	<path class="st1" d="M348.3,56.2l-2.1-8.3h1.9c0.8,3.8,1.1,5.5,1.2,6.4h0c0.3-1.5,1.1-4.4,1.6-6.4h1.6c0.4,1.6,1.3,4.8,1.5,6.3h0
		c0.3-1.8,1.1-5,1.4-6.3h1.7l-2.2,8.3h-1.9c-0.4-1.8-1.2-4.5-1.5-5.9h0c-0.3,1.5-1,4.3-1.5,5.9H348.3z"/>
	<path class="st1" d="M357.9,56.2v-0.1c0-1.4,0.6-2.5,2.3-3.7c1.1-0.8,1.5-1.1,1.5-1.8c0-0.7-0.3-1.1-1-1.1c-0.8,0-1.1,0.5-1.2,1.2
		h-1.7c0.1-1.4,1-2.5,2.8-2.5c2,0,2.7,1.2,2.7,2.4c0,1.1-0.5,1.7-1.9,2.7c-1,0.7-1.4,1.1-1.5,1.5h3.7l-0.2,1.4H357.9z"/>
	<path class="st1" d="M366,56.2v-5.9c-0.4,0.2-1,0.3-1.4,0.3v-1.3c0.7-0.1,1.5-0.6,2-1.1h1.2v7.9H366z"/>
	<path class="st1" d="M375.4,52.2c0,2.2-0.7,4.1-3,4.1c-2.3,0-3-1.9-3-4.1c0-2.2,0.8-4.1,3.1-4.1C374.6,48.2,375.4,50,375.4,52.2z
		 M371.1,52.2c0,1.5,0.2,2.7,1.3,2.7c1.1,0,1.2-1.2,1.2-2.8c0-1.5-0.2-2.7-1.2-2.7C371.4,49.5,371.1,50.5,371.1,52.2z"/>
</g>
<g>
	<path class="st1" d="M402.3,56.2l-2.1-8.3h1.9c0.8,3.8,1.1,5.5,1.2,6.4h0c0.3-1.5,1.1-4.4,1.6-6.4h1.6c0.4,1.6,1.3,4.8,1.5,6.3h0
		c0.3-1.8,1.1-5,1.4-6.3h1.7l-2.2,8.3h-1.9c-0.4-1.8-1.2-4.5-1.5-5.9h0c-0.3,1.5-1,4.3-1.5,5.9H402.3z"/>
	<path class="st1" d="M411.9,56.2v-0.1c0-1.4,0.6-2.5,2.3-3.7c1.1-0.8,1.5-1.1,1.5-1.8c0-0.7-0.3-1.1-1-1.1c-0.8,0-1.1,0.5-1.2,1.2
		h-1.7c0.1-1.4,1-2.5,2.8-2.5c2,0,2.7,1.2,2.7,2.4c0,1.1-0.5,1.7-1.9,2.7c-1,0.7-1.4,1.1-1.5,1.5h3.7l-0.2,1.4H411.9z"/>
	<path class="st1" d="M420,56.2v-5.9c-0.4,0.2-1,0.3-1.4,0.3v-1.3c0.7-0.1,1.5-0.6,2-1.1h1.2v7.9H420z"/>
	<path class="st1" d="M424.5,56.2v-5.9c-0.4,0.2-1,0.3-1.4,0.3v-1.3c0.7-0.1,1.5-0.6,2-1.1h1.2v7.9H424.5z"/>
</g>
<g>
	<path class="st1" d="M456.3,56.2l-2.1-8.3h1.9c0.8,3.8,1.1,5.5,1.2,6.4h0c0.3-1.5,1.1-4.4,1.6-6.4h1.6c0.4,1.6,1.3,4.8,1.5,6.3h0
		c0.3-1.8,1.1-5,1.4-6.3h1.7l-2.2,8.3h-1.9c-0.4-1.8-1.2-4.5-1.5-5.9h0c-0.3,1.5-1,4.3-1.5,5.9H456.3z"/>
	<path class="st1" d="M465.9,56.2v-0.1c0-1.4,0.6-2.5,2.3-3.7c1.1-0.8,1.5-1.1,1.5-1.8c0-0.7-0.3-1.1-1-1.1c-0.8,0-1.1,0.5-1.2,1.2
		h-1.7c0.1-1.4,1-2.5,2.8-2.5c2,0,2.7,1.2,2.7,2.4c0,1.1-0.5,1.7-1.9,2.7c-1,0.7-1.4,1.1-1.5,1.5h3.7l-0.2,1.4H465.9z"/>
	<path class="st1" d="M474,56.2v-5.9c-0.4,0.2-1,0.3-1.4,0.3v-1.3c0.7-0.1,1.5-0.6,2-1.1h1.2v7.9H474z"/>
	<path class="st1" d="M477.4,56.2v-0.1c0-1.4,0.6-2.5,2.3-3.7c1.1-0.8,1.5-1.1,1.5-1.8c0-0.7-0.3-1.1-1-1.1c-0.8,0-1.1,0.5-1.2,1.2
		h-1.7c0.1-1.4,1-2.5,2.8-2.5c2,0,2.7,1.2,2.7,2.4c0,1.1-0.5,1.7-1.9,2.7c-1,0.7-1.4,1.1-1.5,1.5h3.7l-0.2,1.4H477.4z"/>
</g>
<g>
	<path class="st1" d="M522.3,56.2l-2.1-8.3h1.9c0.8,3.8,1.1,5.5,1.2,6.4h0c0.3-1.5,1.1-4.4,1.6-6.4h1.6c0.4,1.6,1.3,4.8,1.5,6.3h0
		c0.3-1.8,1.1-5,1.4-6.3h1.7l-2.2,8.3h-1.9c-0.4-1.8-1.2-4.5-1.5-5.9h0c-0.3,1.5-1,4.3-1.5,5.9H522.3z"/>
	<path class="st1" d="M531.9,56.2v-0.1c0-1.4,0.6-2.5,2.3-3.7c1.1-0.8,1.5-1.1,1.5-1.8c0-0.7-0.3-1.1-1-1.1c-0.8,0-1.1,0.5-1.2,1.2
		h-1.7c0.1-1.4,1-2.5,2.8-2.5c2,0,2.7,1.2,2.7,2.4c0,1.1-0.5,1.7-1.9,2.7c-1,0.7-1.4,1.1-1.5,1.5h3.7l-0.2,1.4H531.9z"/>
	<path class="st1" d="M540,56.2v-5.9c-0.4,0.2-1,0.3-1.4,0.3v-1.3c0.7-0.1,1.5-0.6,2-1.1h1.2v7.9H540z"/>
	<path class="st1" d="M543.3,50.3c0.1-1,0.8-2.2,2.8-2.2c1.8,0,2.6,1,2.6,2.1c0,1-0.5,1.4-1,1.6v0c0.5,0.2,1.3,0.7,1.3,1.9
		c0,1.1-0.7,2.5-3,2.5c-2.1,0-2.8-1.3-2.9-2.3h1.7c0.1,0.5,0.5,1,1.3,1c0.8,0,1.2-0.5,1.2-1.2c0-0.7-0.4-1.2-1.3-1.2h-0.7v-1.3h0.6
		c0.8,0,1.1-0.3,1.1-0.9c0-0.5-0.3-0.9-1-0.9c-0.8,0-1,0.4-1.1,0.8H543.3z"/>
</g>
<g>
	<path class="st1" d="M522.3,136.2l-2.1-8.3h1.9c0.8,3.8,1.1,5.5,1.2,6.4h0c0.3-1.5,1.1-4.4,1.6-6.4h1.6c0.4,1.6,1.3,4.8,1.5,6.3h0
		c0.3-1.8,1.1-5,1.4-6.3h1.7l-2.2,8.3h-1.9c-0.4-1.8-1.2-4.5-1.5-5.9h0c-0.3,1.5-1,4.3-1.5,5.9H522.3z"/>
	<path class="st1" d="M531.9,136.2v-0.1c0-1.4,0.6-2.5,2.3-3.7c1.1-0.8,1.5-1.1,1.5-1.8c0-0.7-0.3-1.1-1-1.1c-0.8,0-1.1,0.5-1.2,1.2
		h-1.7c0.1-1.4,1-2.5,2.8-2.5c2,0,2.7,1.2,2.7,2.4c0,1.1-0.5,1.7-1.9,2.7c-1,0.7-1.4,1.1-1.5,1.5h3.7l-0.2,1.4H531.9z"/>
	<path class="st1" d="M538.6,130.3c0.1-1,0.8-2.2,2.8-2.2c1.8,0,2.6,1,2.6,2.1c0,1-0.5,1.4-1,1.6v0c0.5,0.2,1.3,0.7,1.3,1.9
		c0,1.1-0.7,2.5-3,2.5c-2.1,0-2.8-1.3-2.9-2.3h1.7c0.1,0.5,0.5,1,1.3,1c0.8,0,1.2-0.5,1.2-1.2c0-0.7-0.4-1.2-1.3-1.2h-0.7v-1.3h0.6
		c0.8,0,1.1-0.3,1.1-0.9c0-0.5-0.3-0.9-1-0.9c-0.8,0-1,0.4-1.1,0.8H538.6z"/>
	<path class="st1" d="M545.4,130.3c0.1-1,0.8-2.2,2.8-2.2c1.8,0,2.6,1,2.6,2.1c0,1-0.5,1.4-1,1.6v0c0.5,0.2,1.3,0.7,1.3,1.9
		c0,1.1-0.7,2.5-3,2.5c-2.1,0-2.8-1.3-2.9-2.3h1.7c0.1,0.5,0.5,1,1.3,1c0.8,0,1.2-0.5,1.2-1.2c0-0.7-0.4-1.2-1.3-1.2h-0.7v-1.3h0.6
		c0.8,0,1.1-0.3,1.1-0.9c0-0.5-0.3-0.9-1-0.9c-0.8,0-1,0.4-1.1,0.8H545.4z"/>
</g>
<g>
	<path class="st1" d="M522.3,346.2l-2.1-8.3h1.9c0.8,3.8,1.1,5.5,1.2,6.4h0c0.3-1.5,1.1-4.4,1.6-6.4h1.6c0.4,1.6,1.3,4.8,1.5,6.3h0
		c0.3-1.8,1.1-5,1.4-6.3h1.7l-2.2,8.3h-1.9c-0.4-1.8-1.2-4.5-1.5-5.9h0c-0.3,1.5-1,4.3-1.5,5.9H522.3z"/>
	<path class="st1" d="M531.9,346.2v-0.1c0-1.4,0.6-2.5,2.3-3.7c1.1-0.8,1.5-1.1,1.5-1.8c0-0.7-0.3-1.1-1-1.1c-0.8,0-1.1,0.5-1.2,1.2
		h-1.7c0.1-1.4,1-2.5,2.8-2.5c2,0,2.7,1.2,2.7,2.4c0,1.1-0.5,1.7-1.9,2.7c-1,0.7-1.4,1.1-1.5,1.5h3.7l-0.2,1.4H531.9z"/>
	<path class="st1" d="M540,346.2v-5.9c-0.4,0.2-1,0.3-1.4,0.3v-1.3c0.7-0.1,1.5-0.6,2-1.1h1.2v7.9H540z"/>
	<path class="st1" d="M548.8,339.7h-3.2c-0.1,0.4-0.2,1.2-0.2,1.5c0.3-0.2,0.7-0.4,1.4-0.4c1.6,0,2.4,1.1,2.4,2.6
		c0,1.5-0.8,2.9-3,2.9c-1.6,0-2.7-0.8-2.9-2.2h1.7c0.2,0.5,0.5,0.9,1.2,0.9c0.8,0,1.2-0.6,1.2-1.5c0-0.8-0.3-1.4-1.2-1.4
		c-0.7,0-1,0.3-1.2,0.8l-1.6-0.2c0.2-1,0.5-3.3,0.7-4.4h4.8L548.8,339.7z"/>
</g>
<g>
	<path class="st1" d="M522.3,456.2l-2.1-8.3h1.9c0.8,3.8,1.1,5.5,1.2,6.4h0c0.3-1.5,1.1-4.4,1.6-6.4h1.6c0.4,1.6,1.3,4.8,1.5,6.3h0
		c0.3-1.8,1.1-5,1.4-6.3h1.7l-2.2,8.3h-1.9c-0.4-1.8-1.2-4.5-1.5-5.9h0c-0.3,1.5-1,4.3-1.5,5.9H522.3z"/>
	<path class="st1" d="M531.9,456.2v-0.1c0-1.4,0.6-2.5,2.3-3.7c1.1-0.8,1.5-1.1,1.5-1.8c0-0.7-0.3-1.1-1-1.1c-0.8,0-1.1,0.5-1.2,1.2
		h-1.7c0.1-1.4,1-2.5,2.8-2.5c2,0,2.7,1.2,2.7,2.4c0,1.1-0.5,1.7-1.9,2.7c-1,0.7-1.4,1.1-1.5,1.5h3.7l-0.2,1.4H531.9z"/>
	<path class="st1" d="M540,456.2v-5.9c-0.4,0.2-1,0.3-1.4,0.3v-1.3c0.7-0.1,1.5-0.6,2-1.1h1.2v7.9H540z"/>
	<path class="st1" d="M547.4,450.2c-0.1-0.4-0.3-0.8-1-0.8c-1.1,0-1.3,1-1.4,2.1c0.3-0.4,0.9-0.7,1.8-0.7c1.4,0,2.5,1.1,2.5,2.6
		c0,1.7-1.1,2.9-2.9,2.9c-2.3,0-3.1-1.8-3.1-4c0-2.1,0.7-4.2,3.1-4.2c1.7,0,2.5,1.1,2.6,2.1H547.4z M547.6,453.5
		c0-0.8-0.3-1.4-1.2-1.4c-0.8,0-1.2,0.4-1.2,1.4c0,0.6,0.3,1.5,1.2,1.5C547.2,455,547.6,454.3,547.6,453.5z"/>
</g>
<g>
	<path class="st1" d="M456.3,469.2l-2.1-8.3h1.9c0.8,3.8,1.1,5.5,1.2,6.4h0c0.3-1.5,1.1-4.4,1.6-6.4h1.6c0.4,1.6,1.3,4.8,1.5,6.3h0
		c0.3-1.8,1.1-5,1.4-6.3h1.7l-2.2,8.3h-1.9c-0.4-1.8-1.2-4.5-1.5-5.9h0c-0.3,1.5-1,4.3-1.5,5.9H456.3z"/>
	<path class="st1" d="M465.9,469.2v-0.1c0-1.4,0.6-2.5,2.3-3.7c1.1-0.8,1.5-1.1,1.5-1.8c0-0.7-0.3-1.1-1-1.1c-0.8,0-1.1,0.5-1.2,1.2
		h-1.7c0.1-1.4,1-2.5,2.8-2.5c2,0,2.7,1.2,2.7,2.4c0,1.1-0.5,1.7-1.9,2.7c-1,0.7-1.4,1.1-1.5,1.5h3.7l-0.2,1.4H465.9z"/>
	<path class="st1" d="M474,469.2v-5.9c-0.4,0.2-1,0.3-1.4,0.3v-1.3c0.7-0.1,1.5-0.6,2-1.1h1.2v7.9H474z"/>
	<path class="st1" d="M482.7,461.3v1.3c-1.3,1.8-2.5,4.3-2.8,6.6h-1.8c0.3-2.3,1.7-5.1,2.8-6.5h-3.7v-1.4H482.7z"/>
</g>
<g>
	<path class="st1" d="M402.3,469.2l-2.1-8.3h1.9c0.8,3.8,1.1,5.5,1.2,6.4h0c0.3-1.5,1.1-4.4,1.6-6.4h1.6c0.4,1.6,1.3,4.8,1.5,6.3h0
		c0.3-1.8,1.1-5,1.4-6.3h1.7l-2.2,8.3h-1.9c-0.4-1.8-1.2-4.5-1.5-5.9h0c-0.3,1.5-1,4.3-1.5,5.9H402.3z"/>
	<path class="st1" d="M411.9,469.2v-0.1c0-1.4,0.6-2.5,2.3-3.7c1.1-0.8,1.5-1.1,1.5-1.8c0-0.7-0.3-1.1-1-1.1c-0.8,0-1.1,0.5-1.2,1.2
		h-1.7c0.1-1.4,1-2.5,2.8-2.5c2,0,2.7,1.2,2.7,2.4c0,1.1-0.5,1.7-1.9,2.7c-1,0.7-1.4,1.1-1.5,1.5h3.7l-0.2,1.4H411.9z"/>
	<path class="st1" d="M420,469.2v-5.9c-0.4,0.2-1,0.3-1.4,0.3v-1.3c0.7-0.1,1.5-0.6,2-1.1h1.2v7.9H420z"/>
	<path class="st1" d="M423.2,466.9c0-1,0.7-1.6,1.3-1.9c-0.6-0.4-1-0.8-1-1.6c0-1.3,1-2.2,2.8-2.2c1.6,0,2.7,0.8,2.7,2.2
		c0,0.9-0.5,1.4-1,1.6c0.6,0.2,1.3,0.9,1.3,1.9c0,1.6-1.3,2.5-3.1,2.5C424.5,469.3,423.2,468.5,423.2,466.9z M427.5,466.9
		c0-0.8-0.5-1.1-1.3-1.1c-0.9,0-1.3,0.5-1.3,1.1c0,0.7,0.5,1.2,1.3,1.2C427,468,427.5,467.7,427.5,466.9z M425.2,463.5
		c0,0.5,0.4,0.9,1.1,0.9c0.7,0,1.1-0.3,1.1-0.9c0-0.6-0.4-1-1.1-1C425.5,462.5,425.2,462.8,425.2,463.5z"/>
</g>
<g>
	<path class="st1" d="M347.3,469.2l-2.1-8.3h1.9c0.8,3.8,1.1,5.5,1.2,6.4h0c0.3-1.5,1.1-4.4,1.6-6.4h1.6c0.4,1.6,1.3,4.8,1.5,6.3h0
		c0.3-1.8,1.1-5,1.4-6.3h1.7l-2.2,8.3h-1.9c-0.4-1.8-1.2-4.5-1.5-5.9h0c-0.3,1.5-1,4.3-1.5,5.9H347.3z"/>
	<path class="st1" d="M356.9,469.2v-0.1c0-1.4,0.6-2.5,2.3-3.7c1.1-0.8,1.5-1.1,1.5-1.8c0-0.7-0.3-1.1-1-1.1c-0.8,0-1.1,0.5-1.2,1.2
		h-1.7c0.1-1.4,1-2.5,2.8-2.5c2,0,2.7,1.2,2.7,2.4c0,1.1-0.5,1.7-1.9,2.7c-1,0.7-1.4,1.1-1.5,1.5h3.7l-0.2,1.4H356.9z"/>
	<path class="st1" d="M365,469.2v-5.9c-0.4,0.2-1,0.3-1.4,0.3v-1.3c0.7-0.1,1.5-0.6,2-1.1h1.2v7.9H365z"/>
	<path class="st1" d="M370.1,467.2c0.1,0.5,0.4,0.8,1.1,0.8c1.1,0,1.2-1.4,1.3-2.2c-0.3,0.5-1,0.7-1.6,0.7c-1.6,0-2.6-1.1-2.6-2.5
		c0-1.5,1.1-2.7,2.9-2.7c2.2,0,3,1.7,3,3.7c0,2.2-0.6,4.5-3,4.5c-1.8,0-2.6-1.1-2.7-2.1H370.1z M370,463.8c0,0.8,0.5,1.3,1.2,1.3
		c0.8,0,1.2-0.4,1.2-1.3c0-0.5-0.2-1.3-1.2-1.3C370.4,462.5,370,463.1,370,463.8z"/>
</g>
<g>
	<path class="st1" d="M293.3,469.2l-2.1-8.3h1.9c0.8,3.8,1.1,5.5,1.2,6.4h0c0.3-1.5,1.1-4.4,1.6-6.4h1.6c0.4,1.6,1.3,4.8,1.5,6.3h0
		c0.3-1.8,1.1-5,1.4-6.3h1.7l-2.2,8.3h-1.9c-0.4-1.8-1.2-4.5-1.5-5.9h0c-0.3,1.5-1,4.3-1.5,5.9H293.3z"/>
	<path class="st1" d="M302.9,469.2v-0.1c0-1.4,0.6-2.5,2.3-3.7c1.1-0.8,1.5-1.1,1.5-1.8c0-0.7-0.3-1.1-1-1.1c-0.8,0-1.1,0.5-1.2,1.2
		h-1.7c0.1-1.4,1-2.5,2.8-2.5c2,0,2.7,1.2,2.7,2.4c0,1.1-0.5,1.7-1.9,2.7c-1,0.7-1.4,1.1-1.5,1.5h3.7l-0.2,1.4H302.9z"/>
	<path class="st1" d="M309.7,469.2v-0.1c0-1.4,0.6-2.5,2.3-3.7c1.1-0.8,1.5-1.1,1.5-1.8c0-0.7-0.3-1.1-1-1.1c-0.8,0-1.1,0.5-1.2,1.2
		h-1.7c0.1-1.4,1-2.5,2.8-2.5c2,0,2.7,1.2,2.7,2.4c0,1.1-0.5,1.7-1.9,2.7c-1,0.7-1.4,1.1-1.5,1.5h3.7l-0.2,1.4H309.7z"/>
	<path class="st1" d="M322.5,465.2c0,2.2-0.7,4.1-3,4.1c-2.3,0-3-1.9-3-4.1c0-2.2,0.8-4.1,3.1-4.1
		C321.7,461.2,322.5,463,322.5,465.2z M318.2,465.2c0,1.5,0.2,2.7,1.3,2.7c1.1,0,1.2-1.2,1.2-2.8c0-1.5-0.2-2.7-1.2-2.7
		C318.5,462.5,318.2,463.5,318.2,465.2z"/>
</g>
<g>
	<path class="st1" d="M238.3,469.2l-2.1-8.3h1.9c0.8,3.8,1.1,5.5,1.2,6.4h0c0.3-1.5,1.1-4.4,1.6-6.4h1.6c0.4,1.6,1.3,4.8,1.5,6.3h0
		c0.3-1.8,1.1-5,1.4-6.3h1.7l-2.2,8.3h-1.9c-0.4-1.8-1.2-4.5-1.5-5.9h0c-0.3,1.5-1,4.3-1.5,5.9H238.3z"/>
	<path class="st1" d="M247.9,469.2v-0.1c0-1.4,0.6-2.5,2.3-3.7c1.1-0.8,1.5-1.1,1.5-1.8c0-0.7-0.3-1.1-1-1.1c-0.8,0-1.1,0.5-1.2,1.2
		h-1.7c0.1-1.4,1-2.5,2.8-2.5c2,0,2.7,1.2,2.7,2.4c0,1.1-0.5,1.7-1.9,2.7c-1,0.7-1.4,1.1-1.5,1.5h3.7l-0.2,1.4H247.9z"/>
	<path class="st1" d="M254.7,469.2v-0.1c0-1.4,0.6-2.5,2.3-3.7c1.1-0.8,1.5-1.1,1.5-1.8c0-0.7-0.3-1.1-1-1.1c-0.8,0-1.1,0.5-1.2,1.2
		h-1.7c0.1-1.4,1-2.5,2.8-2.5c2,0,2.7,1.2,2.7,2.4c0,1.1-0.5,1.7-1.9,2.7c-1,0.7-1.4,1.1-1.5,1.5h3.7l-0.2,1.4H254.7z"/>
	<path class="st1" d="M262.8,469.2v-5.9c-0.4,0.2-1,0.3-1.4,0.3v-1.3c0.7-0.1,1.5-0.6,2-1.1h1.2v7.9H262.8z"/>
</g>
<g>
	<path class="st1" d="M184.3,469.2l-2.1-8.3h1.9c0.8,3.8,1.1,5.5,1.2,6.4h0c0.3-1.5,1.1-4.4,1.6-6.4h1.6c0.4,1.6,1.3,4.8,1.5,6.3h0
		c0.3-1.8,1.1-5,1.4-6.3h1.7l-2.2,8.3h-1.9c-0.4-1.8-1.2-4.5-1.5-5.9h0c-0.3,1.5-1,4.3-1.5,5.9H184.3z"/>
	<path class="st1" d="M193.9,469.2v-0.1c0-1.4,0.6-2.5,2.3-3.7c1.1-0.8,1.5-1.1,1.5-1.8c0-0.7-0.3-1.1-1-1.1c-0.8,0-1.1,0.5-1.2,1.2
		h-1.7c0.1-1.4,1-2.5,2.8-2.5c2,0,2.7,1.2,2.7,2.4c0,1.1-0.5,1.7-1.9,2.7c-1,0.7-1.4,1.1-1.5,1.5h3.7l-0.2,1.4H193.9z"/>
	<path class="st1" d="M200.7,469.2v-0.1c0-1.4,0.6-2.5,2.3-3.7c1.1-0.8,1.5-1.1,1.5-1.8c0-0.7-0.3-1.1-1-1.1c-0.8,0-1.1,0.5-1.2,1.2
		h-1.7c0.1-1.4,1-2.5,2.8-2.5c2,0,2.7,1.2,2.7,2.4c0,1.1-0.5,1.7-1.9,2.7c-1,0.7-1.4,1.1-1.5,1.5h3.7l-0.2,1.4H200.7z"/>
	<path class="st1" d="M207.5,469.2v-0.1c0-1.4,0.6-2.5,2.3-3.7c1.1-0.8,1.5-1.1,1.5-1.8c0-0.7-0.3-1.1-1-1.1c-0.8,0-1.1,0.5-1.2,1.2
		h-1.7c0.1-1.4,1-2.5,2.8-2.5c2,0,2.7,1.2,2.7,2.4c0,1.1-0.5,1.7-1.9,2.7c-1,0.7-1.4,1.1-1.5,1.5h3.7l-0.2,1.4H207.5z"/>
</g>
<g>
	<path class="st1" d="M121.3,469.2l-2.1-8.3h1.9c0.8,3.8,1.1,5.5,1.2,6.4h0c0.3-1.5,1.1-4.4,1.6-6.4h1.6c0.4,1.6,1.3,4.8,1.5,6.3h0
		c0.3-1.8,1.1-5,1.4-6.3h1.7l-2.2,8.3h-1.9c-0.4-1.8-1.2-4.5-1.5-5.9h0c-0.3,1.5-1,4.3-1.5,5.9H121.3z"/>
	<path class="st1" d="M130.9,469.2v-0.1c0-1.4,0.6-2.5,2.3-3.7c1.1-0.8,1.5-1.1,1.5-1.8c0-0.7-0.3-1.1-1-1.1c-0.8,0-1.1,0.5-1.2,1.2
		h-1.7c0.1-1.4,1-2.5,2.8-2.5c2,0,2.7,1.2,2.7,2.4c0,1.1-0.5,1.7-1.9,2.7c-1,0.7-1.4,1.1-1.5,1.5h3.7l-0.2,1.4H130.9z"/>
	<path class="st1" d="M137.7,469.2v-0.1c0-1.4,0.6-2.5,2.3-3.7c1.1-0.8,1.5-1.1,1.5-1.8c0-0.7-0.3-1.1-1-1.1c-0.8,0-1.1,0.5-1.2,1.2
		h-1.7c0.1-1.4,1-2.5,2.8-2.5c2,0,2.7,1.2,2.7,2.4c0,1.1-0.5,1.7-1.9,2.7c-1,0.7-1.4,1.1-1.5,1.5h3.7l-0.2,1.4H137.7z"/>
	<path class="st1" d="M144.4,463.3c0.1-1,0.8-2.2,2.8-2.2c1.8,0,2.6,1,2.6,2.1c0,1-0.5,1.4-1,1.6v0c0.5,0.2,1.3,0.7,1.3,1.9
		c0,1.1-0.7,2.5-3,2.5c-2.1,0-2.8-1.3-2.9-2.3h1.7c0.1,0.5,0.5,1,1.3,1c0.8,0,1.2-0.5,1.2-1.2c0-0.7-0.4-1.2-1.3-1.2h-0.7v-1.3h0.6
		c0.8,0,1.1-0.3,1.1-0.9c0-0.5-0.3-0.9-1-0.9c-0.8,0-1,0.4-1.1,0.8H144.4z"/>
</g>
<g>
	<path class="st1" d="M33.3,469.2l-2.1-8.3h1.9c0.8,3.8,1.1,5.5,1.2,6.4h0c0.3-1.5,1.1-4.4,1.6-6.4h1.6c0.4,1.6,1.3,4.8,1.5,6.3h0
		c0.3-1.8,1.1-5,1.4-6.3h1.7l-2.2,8.3h-1.9c-0.4-1.8-1.2-4.5-1.5-5.9h0c-0.3,1.5-1,4.3-1.5,5.9H33.3z"/>
	<path class="st1" d="M42.9,469.2v-0.1c0-1.4,0.6-2.5,2.3-3.7c1.1-0.8,1.5-1.1,1.5-1.8c0-0.7-0.3-1.1-1-1.1c-0.8,0-1.1,0.5-1.2,1.2
		h-1.7c0.1-1.4,1-2.5,2.8-2.5c2,0,2.7,1.2,2.7,2.4c0,1.1-0.5,1.7-1.9,2.7c-1,0.7-1.4,1.1-1.5,1.5h3.7l-0.2,1.4H42.9z"/>
	<path class="st1" d="M55.7,465.2c0,2.2-0.7,4.1-3,4.1c-2.3,0-3-1.9-3-4.1c0-2.2,0.8-4.1,3.1-4.1C54.9,461.2,55.7,463,55.7,465.2z
		 M51.4,465.2c0,1.5,0.2,2.7,1.3,2.7c1.1,0,1.2-1.2,1.2-2.8c0-1.5-0.2-2.7-1.2-2.7C51.7,462.5,51.4,463.5,51.4,465.2z"/>
	<path class="st1" d="M58.3,469.2v-5.9c-0.4,0.2-1,0.3-1.4,0.3v-1.3c0.7-0.1,1.5-0.6,2-1.1H60v7.9H58.3z"/>
</g>
<g>
	<path class="st1" d="M21.3,377.2l-2.1-8.3h1.9c0.8,3.8,1.1,5.5,1.2,6.4h0c0.3-1.5,1.1-4.4,1.6-6.4h1.6c0.4,1.6,1.3,4.8,1.5,6.3h0
		c0.3-1.8,1.1-5,1.4-6.3h1.7l-2.2,8.3h-1.9c-0.4-1.8-1.2-4.5-1.5-5.9h0c-0.3,1.5-1,4.3-1.5,5.9H21.3z"/>
	<path class="st1" d="M30.9,377.2v-0.1c0-1.4,0.6-2.5,2.3-3.7c1.1-0.8,1.5-1.1,1.5-1.8c0-0.7-0.3-1.1-1-1.1c-0.8,0-1.1,0.5-1.2,1.2
		h-1.7c0.1-1.4,1-2.5,2.8-2.5c2,0,2.7,1.2,2.7,2.4c0,1.1-0.5,1.7-1.9,2.7c-1,0.7-1.4,1.1-1.5,1.5h3.7l-0.2,1.4H30.9z"/>
	<path class="st1" d="M43.7,373.2c0,2.2-0.7,4.1-3,4.1c-2.3,0-3-1.9-3-4.1c0-2.2,0.8-4.1,3.1-4.1C42.9,369.2,43.7,371,43.7,373.2z
		 M39.4,373.2c0,1.5,0.2,2.7,1.3,2.7c1.1,0,1.2-1.2,1.2-2.8c0-1.5-0.2-2.7-1.2-2.7C39.7,370.5,39.4,371.5,39.4,373.2z"/>
	<path class="st1" d="M44.8,377.2v-0.1c0-1.4,0.6-2.5,2.3-3.7c1.1-0.8,1.5-1.1,1.5-1.8c0-0.7-0.3-1.1-1-1.1c-0.8,0-1.1,0.5-1.2,1.2
		h-1.7c0.1-1.4,1-2.5,2.8-2.5c2,0,2.7,1.2,2.7,2.4c0,1.1-0.5,1.7-1.9,2.7c-1,0.7-1.4,1.1-1.5,1.5h3.7l-0.2,1.4H44.8z"/>
</g>
<g>
	<path class="st1" d="M21.3,149.2l-2.1-8.3h1.9c0.8,3.8,1.1,5.5,1.2,6.4h0c0.3-1.5,1.1-4.4,1.6-6.4h1.6c0.4,1.6,1.3,4.8,1.5,6.3h0
		c0.3-1.8,1.1-5,1.4-6.3h1.7l-2.2,8.3h-1.9c-0.4-1.8-1.2-4.5-1.5-5.9h0c-0.3,1.5-1,4.3-1.5,5.9H21.3z"/>
	<path class="st1" d="M30.9,149.2v-0.1c0-1.4,0.6-2.5,2.3-3.7c1.1-0.8,1.5-1.1,1.5-1.8c0-0.7-0.3-1.1-1-1.1c-0.8,0-1.1,0.5-1.2,1.2
		h-1.7c0.1-1.4,1-2.5,2.8-2.5c2,0,2.7,1.2,2.7,2.4c0,1.1-0.5,1.7-1.9,2.7c-1,0.7-1.4,1.1-1.5,1.5h3.7l-0.2,1.4H30.9z"/>
	<path class="st1" d="M43.7,145.2c0,2.2-0.7,4.1-3,4.1c-2.3,0-3-1.9-3-4.1c0-2.2,0.8-4.1,3.1-4.1C42.9,141.2,43.7,143,43.7,145.2z
		 M39.4,145.2c0,1.5,0.2,2.7,1.3,2.7c1.1,0,1.2-1.2,1.2-2.8c0-1.5-0.2-2.7-1.2-2.7C39.7,142.5,39.4,143.5,39.4,145.2z"/>
	<path class="st1" d="M48.4,149.2v-1.8h-3.6v-1.5l3.3-4.6H50v4.7h1l-0.2,1.4H50v1.8H48.4z M48.4,144.6c0-0.9,0-1.3,0-1.8
		c-0.3,0.7-1.3,2.2-2.1,3.2h2V144.6z"/>
</g>
</svg>
