<?xml version="1.0" encoding="utf-8"?>
<!-- Generator: Adobe Illustrator 23.0.1, SVG Export Plug-In . SVG Version: 6.00 Build 0)  -->
<svg version="1.1" xmlns="http://www.w3.org/2000/svg" xmlns:xlink="http://www.w3.org/1999/xlink" x="0px" y="0px"
	 viewBox="0 0 781.3 532.4" style="enable-background:new 0 0 781.3 532.4;" xml:space="preserve">
<style type="text/css">
	.st0{fill:none;stroke:#000000;stroke-miterlimit:10;}
	.st1{fill:#FFFFFF;}
</style>
<g id="Calque_1">
	<g id="bd8226b7-efb3-4c74-abdf-259469cda8de">
		<g id="f27b59ea-1f60-4927-8140-e731d13d85d8">
			<polygon class="st0" points="780.8,531.9 701.7,531.9 701.7,433.5 686.9,433.5 686.9,418.6 780.8,418.8 			"/>
			<rect x="647.4" y="438.5" class="st0" width="49.4" height="93.4"/>
			<rect x="593.1" y="428.6" class="st0" width="49.4" height="103.3"/>
			<rect x="479.5" y="429" class="st0" width="108.6" height="102.9"/>
			<rect x="420.3" y="458.1" class="st0" width="54" height="73.8"/>
			<rect x="365.9" y="458.1" class="st0" width="49.4" height="73.8"/>
			<polygon class="st0" points="361,458.1 361,531.9 306.7,531.9 306.7,458.3 			"/>
			<rect x="252.4" y="458.1" class="st0" width="49.4" height="73.8"/>
			<polygon class="st0" points="247.4,458.1 247.4,531.9 193.1,531.9 193.1,457.9 			"/>
			<polygon class="st0" points="188.1,458.1 188.1,531.9 94.3,531.9 94.3,428.9 168.4,428.6 168.4,458.1 			"/>
			<polygon class="st0" points="93.7,423.7 193.1,423.7 193.1,428.6 282,428.6 282,271.2 0.5,271.2 0.5,404 94.3,404 			"/>
			<polygon class="st0" points="286.9,428.6 365.9,428.9 365.9,266.9 286.9,266.9 			"/>
			<polygon class="st0" points="286.5,261.4 286.9,108.9 474.7,109.3 474.7,202.3 454.8,207.3 454.8,349.9 370.9,349.9 371.4,261.4 
							"/>
			<polygon class="st0" points="370.9,354.9 370.9,428.6 420.3,428.6 420.3,399.1 474.6,399.1 474.6,354.9 			"/>
			<polygon class="st0" points="499.3,399.1 499.2,305.7 657.3,305.7 657.3,399 			"/>
			<rect x="686.9" y="364.7" class="st0" width="93.8" height="49.2"/>
			<polygon class="st0" points="686.9,359.8 780.8,359.8 780.8,305.7 686.7,306.3 			"/>
			<polygon class="st0" points="701.7,300.8 780.8,300.8 780.8,168 701.4,182.7 			"/>
			<polygon class="st0" points="701.7,177.9 780.8,162.7 780.8,79.3 701.7,79.3 701.7,148.3 692.6,153.2 			"/>
			<rect x="706.7" y="0.8" class="st0" width="74.1" height="73.8"/>
			<polygon class="st0" points="701.1,74.5 647.4,74.5 647.4,0.8 701.7,0.8 			"/>
			<polygon class="st0" points="533.8,79.3 534.3,0.8 642.5,0.8 642.5,79.3 			"/>
			<polygon class="st0" points="528.9,0.8 479.5,0.5 479.5,79.3 528.9,79.3 			"/>
			<polygon class="st0" points="473.9,0.5 420.3,0.5 420.3,79.6 474.3,79.3 			"/>
			<polygon class="st0" points="415.3,79.6 365.9,79.4 365.9,0.5 415.3,0.8 			"/>
			<polygon class="st0" points="361,79.9 271.5,79.6 272.1,0.8 361,0.8 			"/>
			<polygon class="st0" points="267.2,79.6 267.2,0.8 188.1,0.8 188.1,79.4 			"/>
			<polygon class="st0" points="0.5,266.3 282,266.9 282,128.6 99.3,128.6 0.5,148.6 			"/>
		</g>
	</g>
</g>
<g id="Calque_2">
	<g>
		<path class="st1" d="M214.2,47.1l-2.3-9h2.1c0.8,4.1,1.2,5.9,1.3,6.9h0c0.3-1.6,1.2-4.8,1.7-6.9h1.7c0.5,1.7,1.4,5.2,1.7,6.8h0
			c0.3-2,1.2-5.4,1.5-6.8h1.9l-2.4,9h-2c-0.5-2-1.3-4.9-1.6-6.4h0c-0.3,1.6-1.1,4.6-1.6,6.4H214.2z"/>
		<path class="st1" d="M226.1,47.1v-6.4c-0.4,0.2-1.1,0.3-1.5,0.4v-1.4c0.8-0.1,1.6-0.6,2.1-1.1h1.3v8.6H226.1z"/>
		<path class="st1" d="M229.7,40.8c0.1-1.1,0.9-2.4,3-2.4c2,0,2.9,1.1,2.9,2.3c0,1-0.6,1.5-1.1,1.7v0c0.6,0.2,1.4,0.7,1.4,2.1
			c0,1.2-0.8,2.7-3.2,2.7c-2.3,0-3.1-1.4-3.2-2.5h1.8c0.1,0.6,0.5,1.1,1.4,1.1c0.9,0,1.3-0.6,1.3-1.3c0-0.8-0.4-1.3-1.4-1.3h-0.8
			v-1.4h0.7c0.9,0,1.2-0.3,1.2-1c0-0.6-0.3-1-1.1-1c-0.9,0-1.1,0.5-1.2,0.9H229.7z"/>
		<path class="st1" d="M237,47.1V47c0-1.5,0.7-2.7,2.5-4c1.2-0.9,1.6-1.2,1.6-1.9c0-0.7-0.4-1.2-1.1-1.2c-0.8,0-1.1,0.5-1.3,1.3H237
			c0.1-1.5,1.1-2.7,3.1-2.7c2.2,0,3,1.3,3,2.6c0,1.2-0.5,1.8-2.1,3c-1.1,0.7-1.5,1.2-1.6,1.6h4.1l-0.2,1.6H237z"/>
	</g>
	<g>
		<path class="st1" d="M305.1,47.1l-2.3-9h2.1c0.8,4.1,1.2,5.9,1.3,6.9h0c0.3-1.6,1.2-4.8,1.7-6.9h1.7c0.5,1.7,1.4,5.2,1.7,6.8h0
			c0.3-2,1.2-5.4,1.5-6.8h1.9l-2.4,9h-2c-0.5-2-1.3-4.9-1.6-6.4h0c-0.3,1.6-1.1,4.6-1.6,6.4H305.1z"/>
		<path class="st1" d="M317,47.1v-6.4c-0.4,0.2-1.1,0.3-1.5,0.4v-1.4c0.8-0.1,1.6-0.6,2.1-1.1h1.3v8.6H317z"/>
		<path class="st1" d="M320.6,40.8c0.1-1.1,0.9-2.4,3-2.4c2,0,2.9,1.1,2.9,2.3c0,1-0.6,1.5-1.1,1.7v0c0.6,0.2,1.4,0.7,1.4,2.1
			c0,1.2-0.8,2.7-3.2,2.7c-2.3,0-3.1-1.4-3.2-2.5h1.8c0.1,0.6,0.5,1.1,1.4,1.1c0.9,0,1.3-0.6,1.3-1.3c0-0.8-0.4-1.3-1.4-1.3h-0.8
			v-1.4h0.7c0.9,0,1.2-0.3,1.2-1c0-0.6-0.3-1-1.1-1c-0.9,0-1.1,0.5-1.2,0.9H320.6z"/>
		<path class="st1" d="M331.8,47.1v-1.9H328v-1.6l3.6-5h2v5.1h1l-0.2,1.5h-0.9v1.9H331.8z M331.8,42.2c0-0.9,0-1.4,0-2
			c-0.3,0.7-1.5,2.3-2.3,3.5h2.2V42.2z"/>
	</g>
	<g>
		<path class="st1" d="M377,47.1l-2.3-9h2.1c0.8,4.1,1.2,5.9,1.3,6.9h0c0.3-1.6,1.2-4.8,1.7-6.9h1.7c0.5,1.7,1.4,5.2,1.7,6.8h0
			c0.3-2,1.2-5.4,1.5-6.8h1.9l-2.4,9h-2c-0.5-2-1.3-4.9-1.6-6.4h0c-0.3,1.6-1.1,4.6-1.6,6.4H377z"/>
		<path class="st1" d="M389,47.1v-6.4c-0.4,0.2-1.1,0.3-1.5,0.4v-1.4c0.8-0.1,1.6-0.6,2.1-1.1h1.3v8.6H389z"/>
		<path class="st1" d="M392.5,40.8c0.1-1.1,0.9-2.4,3-2.4c2,0,2.9,1.1,2.9,2.3c0,1-0.6,1.5-1.1,1.7v0c0.6,0.2,1.4,0.7,1.4,2.1
			c0,1.2-0.8,2.7-3.2,2.7c-2.3,0-3.1-1.4-3.2-2.5h1.8c0.1,0.6,0.5,1.1,1.4,1.1c0.9,0,1.3-0.6,1.3-1.3c0-0.8-0.4-1.3-1.4-1.3h-0.8
			v-1.4h0.7c0.9,0,1.2-0.3,1.2-1c0-0.6-0.3-1-1.1-1c-0.9,0-1.1,0.5-1.2,0.9H392.5z"/>
		<path class="st1" d="M404.3,40.7c-0.1-0.4-0.3-0.8-1.1-0.8c-1.1,0-1.4,1.1-1.5,2.2c0.4-0.4,1-0.8,1.9-0.8c1.6,0,2.7,1.2,2.7,2.8
			c0,1.8-1.2,3.2-3.1,3.2c-2.5,0-3.3-1.9-3.3-4.3c0-2.2,0.8-4.5,3.4-4.5c1.9,0,2.7,1.2,2.8,2.2H404.3z M404.5,44.3
			c0-0.8-0.3-1.5-1.3-1.5c-0.8,0-1.3,0.5-1.3,1.5c0,0.7,0.3,1.6,1.3,1.6C404,45.8,404.5,45.1,404.5,44.3z"/>
	</g>
	<g>
		<path class="st1" d="M434,47.1l-2.3-9h2.1c0.8,4.1,1.2,5.9,1.3,6.9h0c0.3-1.6,1.2-4.8,1.7-6.9h1.7c0.5,1.7,1.4,5.2,1.7,6.8h0
			c0.3-2,1.2-5.4,1.5-6.8h1.9l-2.4,9h-2c-0.5-2-1.3-4.9-1.6-6.4h0c-0.3,1.6-1.1,4.6-1.6,6.4H434z"/>
		<path class="st1" d="M446,47.1v-6.4c-0.4,0.2-1.1,0.3-1.5,0.4v-1.4c0.8-0.1,1.6-0.6,2.1-1.1h1.3v8.6H446z"/>
		<path class="st1" d="M449.5,40.8c0.1-1.1,0.9-2.4,3-2.4c2,0,2.9,1.1,2.9,2.3c0,1-0.6,1.5-1.1,1.7v0c0.6,0.2,1.4,0.7,1.4,2.1
			c0,1.2-0.8,2.7-3.2,2.7c-2.3,0-3.1-1.4-3.2-2.5h1.8c0.1,0.6,0.5,1.1,1.4,1.1c0.9,0,1.3-0.6,1.3-1.3c0-0.8-0.4-1.3-1.4-1.3h-0.8
			v-1.4h0.7c0.9,0,1.2-0.3,1.2-1c0-0.6-0.3-1-1.1-1c-0.9,0-1.1,0.5-1.2,0.9H449.5z"/>
		<path class="st1" d="M456.8,44.7c0-1.1,0.8-1.8,1.4-2c-0.7-0.4-1.1-0.9-1.1-1.8c0-1.5,1.1-2.4,3-2.4c1.8,0,2.9,0.9,2.9,2.4
			c0,1-0.5,1.5-1.1,1.7c0.6,0.2,1.4,0.9,1.4,2.1c0,1.8-1.4,2.7-3.4,2.7C458.2,47.3,456.8,46.4,456.8,44.7z M461.5,44.6
			c0-0.8-0.6-1.2-1.4-1.2c-0.9,0-1.4,0.5-1.4,1.2c0,0.8,0.6,1.3,1.4,1.3C460.9,45.8,461.5,45.5,461.5,44.6z M458.9,40.9
			c0,0.6,0.4,1,1.2,1c0.8,0,1.2-0.3,1.2-1c0-0.6-0.4-1-1.2-1C459.3,39.8,458.9,40.2,458.9,40.9z"/>
	</g>
	<g>
		<path class="st1" d="M491.7,47.1l-2.3-9h2.1c0.8,4.1,1.2,5.9,1.3,6.9h0c0.3-1.6,1.2-4.8,1.7-6.9h1.7c0.5,1.7,1.4,5.2,1.7,6.8h0
			c0.3-2,1.2-5.4,1.5-6.8h1.9l-2.4,9h-2c-0.5-2-1.3-4.9-1.6-6.4h0c-0.3,1.6-1.1,4.6-1.6,6.4H491.7z"/>
		<path class="st1" d="M503.7,47.1v-6.4c-0.4,0.2-1.1,0.3-1.5,0.4v-1.4c0.8-0.1,1.6-0.6,2.1-1.1h1.3v8.6H503.7z"/>
		<path class="st1" d="M511.1,47.1v-1.9h-3.9v-1.6l3.6-5h2v5.1h1l-0.2,1.5h-0.9v1.9H511.1z M511.1,42.2c0-0.9,0-1.4,0-2
			c-0.3,0.7-1.5,2.3-2.3,3.5h2.2V42.2z"/>
		<path class="st1" d="M521.5,42.8c0,2.4-0.7,4.5-3.3,4.5c-2.5,0-3.3-2.1-3.3-4.4c0-2.3,0.9-4.4,3.3-4.4
			C520.7,38.4,521.5,40.4,521.5,42.8z M516.9,42.8c0,1.6,0.2,3,1.4,3c1.2,0,1.3-1.3,1.3-3c0-1.7-0.2-2.9-1.3-2.9
			C517.2,39.9,516.9,41,516.9,42.8z"/>
	</g>
	<g>
		<path class="st1" d="M575.1,47.1l-2.3-9h2.1c0.8,4.1,1.2,5.9,1.3,6.9h0c0.3-1.6,1.2-4.8,1.7-6.9h1.7c0.5,1.7,1.4,5.2,1.7,6.8h0
			c0.3-2,1.2-5.4,1.5-6.8h1.9l-2.4,9h-2c-0.5-2-1.3-4.9-1.6-6.4h0c-0.3,1.6-1.1,4.6-1.6,6.4H575.1z"/>
		<path class="st1" d="M587.1,47.1v-6.4c-0.4,0.2-1.1,0.3-1.5,0.4v-1.4c0.8-0.1,1.6-0.6,2.1-1.1h1.3v8.6H587.1z"/>
		<path class="st1" d="M594.5,47.1v-1.9h-3.9v-1.6l3.6-5h2v5.1h1l-0.2,1.5h-0.9v1.9H594.5z M594.5,42.2c0-0.9,0-1.4,0-2
			c-0.3,0.7-1.5,2.3-2.3,3.5h2.2V42.2z"/>
		<path class="st1" d="M598.1,47.1V47c0-1.5,0.7-2.7,2.5-4c1.2-0.9,1.6-1.2,1.6-1.9c0-0.7-0.4-1.2-1.1-1.2c-0.8,0-1.1,0.5-1.3,1.3
			H598c0.1-1.5,1.1-2.7,3.1-2.7c2.2,0,3,1.3,3,2.6c0,1.2-0.5,1.8-2.1,3c-1.1,0.7-1.5,1.2-1.6,1.6h4.1l-0.2,1.6H598.1z"/>
	</g>
	<g>
		<path class="st1" d="M658.8,47.1l-2.3-9h2.1c0.8,4.1,1.2,5.9,1.3,6.9h0c0.3-1.6,1.2-4.8,1.7-6.9h1.7c0.5,1.7,1.4,5.2,1.7,6.8h0
			c0.3-2,1.2-5.4,1.5-6.8h1.9l-2.4,9h-2c-0.5-2-1.3-4.9-1.6-6.4h0c-0.3,1.6-1.1,4.6-1.6,6.4H658.8z"/>
		<path class="st1" d="M670.8,47.1v-6.4c-0.4,0.2-1.1,0.3-1.5,0.4v-1.4c0.8-0.1,1.6-0.6,2.1-1.1h1.3v8.6H670.8z"/>
		<path class="st1" d="M678.2,47.1v-1.9h-3.9v-1.6l3.6-5h2v5.1h1l-0.2,1.5H680v1.9H678.2z M678.2,42.2c0-0.9,0-1.4,0-2
			c-0.3,0.7-1.5,2.3-2.3,3.5h2.2V42.2z"/>
		<path class="st1" d="M686.5,40.7c-0.1-0.4-0.3-0.8-1.1-0.8c-1.1,0-1.4,1.1-1.5,2.2c0.4-0.4,1-0.8,1.9-0.8c1.6,0,2.7,1.2,2.7,2.8
			c0,1.8-1.2,3.2-3.1,3.2c-2.5,0-3.3-1.9-3.3-4.3c0-2.2,0.8-4.5,3.4-4.5c1.9,0,2.7,1.2,2.8,2.2H686.5z M686.6,44.3
			c0-0.8-0.3-1.5-1.3-1.5c-0.8,0-1.3,0.5-1.3,1.5c0,0.7,0.3,1.6,1.3,1.6C686.2,45.8,686.6,45.1,686.6,44.3z"/>
	</g>
	<g>
		<path class="st1" d="M730.8,47.1l-2.3-9h2.1c0.8,4.1,1.2,5.9,1.3,6.9h0c0.3-1.6,1.2-4.8,1.7-6.9h1.7c0.5,1.7,1.4,5.2,1.7,6.8h0
			c0.3-2,1.2-5.4,1.5-6.8h1.9l-2.4,9h-2c-0.5-2-1.3-4.9-1.6-6.4h0c-0.3,1.6-1.1,4.6-1.6,6.4H730.8z"/>
		<path class="st1" d="M742.7,47.1v-6.4c-0.4,0.2-1.1,0.3-1.5,0.4v-1.4c0.8-0.1,1.6-0.6,2.1-1.1h1.3v8.6H742.7z"/>
		<path class="st1" d="M752.2,40.1h-3.4c-0.1,0.5-0.2,1.3-0.3,1.6c0.3-0.3,0.8-0.5,1.5-0.5c1.7,0,2.6,1.2,2.6,2.8
			c0,1.7-0.9,3.2-3.2,3.2c-1.7,0-2.9-0.9-3.1-2.4h1.9c0.2,0.6,0.6,1,1.3,1c0.9,0,1.3-0.7,1.3-1.6c0-0.9-0.3-1.5-1.3-1.5
			c-0.8,0-1.1,0.3-1.3,0.9l-1.7-0.2c0.2-1.1,0.6-3.6,0.7-4.8h5.2L752.2,40.1z"/>
		<path class="st1" d="M760.5,42.8c0,2.4-0.7,4.5-3.3,4.5c-2.5,0-3.3-2.1-3.3-4.4c0-2.3,0.9-4.4,3.3-4.4
			C759.6,38.4,760.5,40.4,760.5,42.8z M755.8,42.8c0,1.6,0.2,3,1.4,3c1.2,0,1.3-1.3,1.3-3c0-1.7-0.2-2.9-1.3-2.9
			C756.1,39.9,755.8,41,755.8,42.8z"/>
	</g>
	<g>
		<path class="st1" d="M730.8,128.1l-2.3-9h2.1c0.8,4.1,1.2,5.9,1.3,6.9h0c0.3-1.6,1.2-4.8,1.7-6.9h1.7c0.5,1.7,1.4,5.2,1.7,6.8h0
			c0.3-2,1.2-5.4,1.5-6.8h1.9l-2.4,9h-2c-0.5-2-1.3-4.9-1.6-6.4h0c-0.3,1.6-1.1,4.6-1.6,6.4H730.8z"/>
		<path class="st1" d="M742.8,128.1v-6.4c-0.4,0.2-1.1,0.3-1.5,0.4v-1.4c0.8-0.1,1.6-0.6,2.1-1.1h1.3v8.6H742.8z"/>
		<path class="st1" d="M750.2,128.1v-1.9h-3.9v-1.6l3.6-5h2v5.1h1l-0.2,1.5H752v1.9H750.2z M750.2,123.2c0-0.9,0-1.4,0-2
			c-0.3,0.7-1.5,2.3-2.3,3.5h2.2V123.2z"/>
		<path class="st1" d="M753.9,125.7c0-1.1,0.8-1.8,1.4-2c-0.7-0.4-1.1-0.9-1.1-1.8c0-1.5,1.1-2.4,3-2.4c1.8,0,2.9,0.9,2.9,2.4
			c0,1-0.5,1.5-1.1,1.7c0.6,0.2,1.4,0.9,1.4,2.1c0,1.8-1.4,2.7-3.4,2.7C755.4,128.3,753.9,127.4,753.9,125.7z M758.6,125.6
			c0-0.8-0.6-1.2-1.4-1.2c-0.9,0-1.4,0.5-1.4,1.2c0,0.8,0.6,1.3,1.4,1.3C758,126.8,758.6,126.5,758.6,125.6z M756,121.9
			c0,0.6,0.4,1,1.2,1c0.8,0,1.2-0.3,1.2-1c0-0.6-0.4-1-1.2-1C756.4,120.8,756,121.2,756,121.9z"/>
	</g>
	<g>
		<path class="st1" d="M729.2,246.1l-2.3-9h2.1c0.8,4.1,1.2,5.9,1.3,6.9h0c0.3-1.6,1.2-4.8,1.7-6.9h1.7c0.5,1.7,1.4,5.2,1.7,6.8h0
			c0.3-2,1.2-5.4,1.5-6.8h1.9l-2.4,9h-2c-0.5-2-1.3-4.9-1.6-6.4h0c-0.3,1.6-1.1,4.6-1.6,6.4H729.2z"/>
		<path class="st1" d="M741.1,246.1v-6.4c-0.4,0.2-1.1,0.3-1.5,0.4v-1.4c0.8-0.1,1.6-0.6,2.1-1.1h1.3v8.6H741.1z"/>
		<path class="st1" d="M750.6,239.1h-3.4c-0.1,0.5-0.2,1.3-0.3,1.6c0.3-0.3,0.8-0.5,1.5-0.5c1.7,0,2.6,1.2,2.6,2.8
			c0,1.7-0.9,3.2-3.2,3.2c-1.7,0-2.9-0.9-3.1-2.4h1.9c0.2,0.6,0.6,1,1.3,1c0.9,0,1.3-0.7,1.3-1.6c0-0.9-0.3-1.5-1.3-1.5
			c-0.8,0-1.1,0.3-1.3,0.9l-1.7-0.2c0.2-1.1,0.6-3.6,0.7-4.8h5.2L750.6,239.1z"/>
		<path class="st1" d="M752,246.1V246c0-1.5,0.7-2.7,2.5-4c1.2-0.9,1.6-1.2,1.6-1.9c0-0.7-0.4-1.2-1.1-1.2c-0.8,0-1.1,0.5-1.3,1.3
			H752c0.1-1.5,1.1-2.7,3.1-2.7c2.2,0,3,1.3,3,2.6c0,1.2-0.5,1.8-2.1,3c-1.1,0.7-1.5,1.2-1.6,1.6h4.1l-0.2,1.6H752z"/>
	</g>
	<g>
		<path class="st1" d="M720.8,337.1l-2.3-9h2.1c0.8,4.1,1.2,5.9,1.3,6.9h0c0.3-1.6,1.2-4.8,1.7-6.9h1.7c0.5,1.7,1.4,5.2,1.7,6.8h0
			c0.3-2,1.2-5.4,1.5-6.8h1.9l-2.4,9h-2c-0.5-2-1.3-4.9-1.6-6.4h0c-0.3,1.6-1.1,4.6-1.6,6.4H720.8z"/>
		<path class="st1" d="M732.7,337.1v-6.4c-0.4,0.2-1.1,0.3-1.5,0.4v-1.4c0.8-0.1,1.6-0.6,2.1-1.1h1.3v8.6H732.7z"/>
		<path class="st1" d="M742.9,332.8c0,2.4-0.7,4.5-3.3,4.5c-2.5,0-3.3-2.1-3.3-4.4c0-2.3,0.9-4.4,3.3-4.4
			C742,328.4,742.9,330.4,742.9,332.8z M738.3,332.8c0,1.6,0.2,3,1.4,3c1.2,0,1.3-1.3,1.3-3c0-1.7-0.2-2.9-1.3-2.9
			C738.6,329.9,738.3,331,738.3,332.8z"/>
		<path class="st1" d="M748.5,330.7c-0.1-0.4-0.3-0.8-1.1-0.8c-1.1,0-1.4,1.1-1.5,2.2c0.4-0.4,1-0.8,1.9-0.8c1.6,0,2.7,1.2,2.7,2.8
			c0,1.8-1.2,3.2-3.1,3.2c-2.5,0-3.3-1.9-3.3-4.3c0-2.2,0.8-4.5,3.4-4.5c1.9,0,2.7,1.2,2.8,2.2H748.5z M748.7,334.3
			c0-0.8-0.3-1.5-1.3-1.5c-0.8,0-1.3,0.5-1.3,1.5c0,0.7,0.3,1.6,1.3,1.6C748.3,335.8,748.7,335.1,748.7,334.3z"/>
	</g>
	<g>
		<path class="st1" d="M720.7,394.1l-2.3-9h2.1c0.8,4.1,1.2,5.9,1.3,6.9h0c0.3-1.6,1.2-4.8,1.7-6.9h1.7c0.5,1.7,1.4,5.2,1.7,6.8h0
			c0.3-2,1.2-5.4,1.5-6.8h1.9l-2.4,9h-2c-0.5-2-1.3-4.9-1.6-6.4h0c-0.3,1.6-1.1,4.6-1.6,6.4H720.7z"/>
		<path class="st1" d="M732.7,394.1v-6.4c-0.4,0.2-1.1,0.3-1.5,0.4v-1.4c0.8-0.1,1.6-0.6,2.1-1.1h1.3v8.6H732.7z"/>
		<path class="st1" d="M742.9,389.8c0,2.4-0.7,4.5-3.3,4.5c-2.5,0-3.3-2.1-3.3-4.4c0-2.3,0.9-4.4,3.3-4.4
			C742,385.4,742.9,387.4,742.9,389.8z M738.2,389.8c0,1.6,0.2,3,1.4,3c1.2,0,1.3-1.3,1.3-3c0-1.7-0.2-2.9-1.3-2.9
			C738.5,386.9,738.2,388,738.2,389.8z"/>
		<path class="st1" d="M744,391.7c0-1.1,0.8-1.8,1.4-2c-0.7-0.4-1.1-0.9-1.1-1.8c0-1.5,1.1-2.4,3-2.4c1.8,0,2.9,0.9,2.9,2.4
			c0,1-0.5,1.5-1.1,1.7c0.6,0.2,1.4,0.9,1.4,2.1c0,1.8-1.4,2.7-3.4,2.7C745.5,394.3,744,393.4,744,391.7z M748.7,391.6
			c0-0.8-0.6-1.2-1.4-1.2c-0.9,0-1.4,0.5-1.4,1.2c0,0.8,0.6,1.3,1.4,1.3C748.1,392.8,748.7,392.5,748.7,391.6z M746.1,387.9
			c0,0.6,0.4,1,1.2,1c0.8,0,1.2-0.3,1.2-1c0-0.6-0.4-1-1.2-1C746.5,386.8,746.1,387.2,746.1,387.9z"/>
	</g>
	<g>
		<path class="st1" d="M729.1,481.1l-2.3-9h2.1c0.8,4.1,1.2,5.9,1.3,6.9h0c0.3-1.6,1.2-4.8,1.7-6.9h1.7c0.5,1.7,1.4,5.2,1.7,6.8h0
			c0.3-2,1.2-5.4,1.5-6.8h1.9l-2.4,9h-2c-0.5-2-1.3-4.9-1.6-6.4h0c-0.3,1.6-1.1,4.6-1.6,6.4H729.1z"/>
		<path class="st1" d="M741.1,481.1v-6.4c-0.4,0.2-1.1,0.3-1.5,0.4v-1.4c0.8-0.1,1.6-0.6,2.1-1.1h1.3v8.6H741.1z"/>
		<path class="st1" d="M746,481.1v-6.4c-0.4,0.2-1.1,0.3-1.5,0.4v-1.4c0.8-0.1,1.6-0.6,2.1-1.1h1.3v8.6H746z"/>
		<path class="st1" d="M756.1,476.8c0,2.4-0.7,4.5-3.3,4.5c-2.5,0-3.3-2.1-3.3-4.4c0-2.3,0.9-4.4,3.3-4.4
			C755.3,472.4,756.1,474.4,756.1,476.8z M751.5,476.8c0,1.6,0.2,3,1.4,3c1.2,0,1.3-1.3,1.3-3c0-1.7-0.2-2.9-1.3-2.9
			C751.8,473.9,751.5,475,751.5,476.8z"/>
	</g>
	<g>
		<path class="st1" d="M660.3,487.1l-2.3-9h2.1c0.8,4.1,1.2,5.9,1.3,6.9h0c0.3-1.6,1.2-4.8,1.7-6.9h1.7c0.5,1.7,1.4,5.2,1.7,6.8h0
			c0.3-2,1.2-5.4,1.5-6.8h1.9l-2.4,9h-2c-0.5-2-1.3-4.9-1.6-6.4h0c-0.3,1.6-1.1,4.6-1.6,6.4H660.3z"/>
		<path class="st1" d="M672.3,487.1v-6.4c-0.4,0.2-1.1,0.3-1.5,0.4v-1.4c0.8-0.1,1.6-0.6,2.1-1.1h1.3v8.6H672.3z"/>
		<path class="st1" d="M677.2,487.1v-6.4c-0.4,0.2-1.1,0.3-1.5,0.4v-1.4c0.8-0.1,1.6-0.6,2.1-1.1h1.3v8.6H677.2z"/>
		<path class="st1" d="M680.8,487.1V487c0-1.5,0.7-2.7,2.5-4c1.2-0.9,1.6-1.2,1.6-1.9c0-0.7-0.4-1.2-1.1-1.2c-0.8,0-1.1,0.5-1.3,1.3
			h-1.8c0.1-1.5,1.1-2.7,3.1-2.7c2.2,0,3,1.3,3,2.6c0,1.2-0.5,1.8-2.1,3c-1.1,0.7-1.5,1.2-1.6,1.6h4.1l-0.2,1.6H680.8z"/>
	</g>
	<g>
		<path class="st1" d="M607.3,486.1l-2.3-9h2.1c0.8,4.1,1.2,5.9,1.3,6.9h0c0.3-1.6,1.2-4.8,1.7-6.9h1.7c0.5,1.7,1.4,5.2,1.7,6.8h0
			c0.3-2,1.2-5.4,1.5-6.8h1.9l-2.4,9h-2c-0.5-2-1.3-4.9-1.6-6.4h0c-0.3,1.6-1.1,4.6-1.6,6.4H607.3z"/>
		<path class="st1" d="M619.3,486.1v-6.4c-0.4,0.2-1.1,0.3-1.5,0.4v-1.4c0.8-0.1,1.6-0.6,2.1-1.1h1.3v8.6H619.3z"/>
		<path class="st1" d="M624.2,486.1v-6.4c-0.4,0.2-1.1,0.3-1.5,0.4v-1.4c0.8-0.1,1.6-0.6,2.1-1.1h1.3v8.6H624.2z"/>
		<path class="st1" d="M631.6,486.1v-1.9h-3.9v-1.6l3.6-5h2v5.1h1l-0.2,1.5h-0.9v1.9H631.6z M631.6,481.2c0-0.9,0-1.4,0-2
			c-0.3,0.7-1.5,2.3-2.3,3.5h2.2V481.2z"/>
	</g>
	<g>
		<path class="st1" d="M525.2,486.1l-2.3-9h2.1c0.8,4.1,1.2,5.9,1.3,6.9h0c0.3-1.6,1.2-4.8,1.7-6.9h1.7c0.5,1.7,1.4,5.2,1.7,6.8h0
			c0.3-2,1.2-5.4,1.5-6.8h1.9l-2.4,9h-2c-0.5-2-1.3-4.9-1.6-6.4h0c-0.3,1.6-1.1,4.6-1.6,6.4H525.2z"/>
		<path class="st1" d="M537.2,486.1v-6.4c-0.4,0.2-1.1,0.3-1.5,0.4v-1.4c0.8-0.1,1.6-0.6,2.1-1.1h1.3v8.6H537.2z"/>
		<path class="st1" d="M542.1,486.1v-6.4c-0.4,0.2-1.1,0.3-1.5,0.4v-1.4c0.8-0.1,1.6-0.6,2.1-1.1h1.3v8.6H542.1z"/>
		<path class="st1" d="M550.1,479.7c-0.1-0.4-0.3-0.8-1.1-0.8c-1.1,0-1.4,1.1-1.5,2.2c0.4-0.4,1-0.8,1.9-0.8c1.6,0,2.7,1.2,2.7,2.8
			c0,1.8-1.2,3.2-3.1,3.2c-2.5,0-3.3-1.9-3.3-4.3c0-2.2,0.8-4.5,3.4-4.5c1.9,0,2.7,1.2,2.8,2.2H550.1z M550.3,483.3
			c0-0.8-0.3-1.5-1.3-1.5c-0.8,0-1.3,0.5-1.3,1.5c0,0.7,0.3,1.6,1.3,1.6C549.8,484.8,550.3,484.1,550.3,483.3z"/>
	</g>
	<g>
		<path class="st1" d="M435.2,501.1l-2.3-9h2.1c0.8,4.1,1.2,5.9,1.3,6.9h0c0.3-1.6,1.2-4.8,1.7-6.9h1.7c0.5,1.7,1.4,5.2,1.7,6.8h0
			c0.3-2,1.2-5.4,1.5-6.8h1.9l-2.4,9h-2c-0.5-2-1.3-4.9-1.6-6.4h0c-0.3,1.6-1.1,4.6-1.6,6.4H435.2z"/>
		<path class="st1" d="M447.2,501.1v-6.4c-0.4,0.2-1.1,0.3-1.5,0.4v-1.4c0.8-0.1,1.6-0.6,2.1-1.1h1.3v8.6H447.2z"/>
		<path class="st1" d="M452.1,501.1v-6.4c-0.4,0.2-1.1,0.3-1.5,0.4v-1.4c0.8-0.1,1.6-0.6,2.1-1.1h1.3v8.6H452.1z"/>
		<path class="st1" d="M455.5,498.7c0-1.1,0.8-1.8,1.4-2c-0.7-0.4-1.1-0.9-1.1-1.8c0-1.5,1.1-2.4,3-2.4c1.8,0,2.9,0.9,2.9,2.4
			c0,1-0.5,1.5-1.1,1.7c0.6,0.2,1.4,0.9,1.4,2.1c0,1.8-1.4,2.7-3.4,2.7C457,501.3,455.5,500.4,455.5,498.7z M460.2,498.6
			c0-0.8-0.6-1.2-1.4-1.2c-0.9,0-1.4,0.5-1.4,1.2c0,0.8,0.6,1.3,1.4,1.3C459.6,499.8,460.2,499.5,460.2,498.6z M457.6,494.9
			c0,0.6,0.4,1,1.2,1c0.8,0,1.2-0.3,1.2-1c0-0.6-0.4-1-1.2-1C458,493.8,457.6,494.2,457.6,494.9z"/>
	</g>
	<g>
		<path class="st1" d="M376.9,501.1l-2.3-9h2.1c0.8,4.1,1.2,5.9,1.3,6.9h0c0.3-1.6,1.2-4.8,1.7-6.9h1.7c0.5,1.7,1.4,5.2,1.7,6.8h0
			c0.3-2,1.2-5.4,1.5-6.8h1.9l-2.4,9h-2c-0.5-2-1.3-4.9-1.6-6.4h0c-0.3,1.6-1.1,4.6-1.6,6.4H376.9z"/>
		<path class="st1" d="M388.9,501.1v-6.4c-0.4,0.2-1.1,0.3-1.5,0.4v-1.4c0.8-0.1,1.6-0.6,2.1-1.1h1.3v8.6H388.9z"/>
		<path class="st1" d="M392.5,501.1V501c0-1.5,0.7-2.7,2.5-4c1.2-0.9,1.6-1.2,1.6-1.9c0-0.7-0.4-1.2-1.1-1.2c-0.8,0-1.1,0.5-1.3,1.3
			h-1.8c0.1-1.5,1.1-2.7,3.1-2.7c2.2,0,3,1.3,3,2.6c0,1.2-0.5,1.8-2.1,3c-1.1,0.7-1.5,1.2-1.6,1.6h4.1l-0.2,1.6H392.5z"/>
		<path class="st1" d="M406.4,496.8c0,2.4-0.7,4.5-3.3,4.5c-2.5,0-3.3-2.1-3.3-4.4c0-2.3,0.9-4.4,3.3-4.4
			C405.5,492.4,406.4,494.4,406.4,496.8z M401.7,496.8c0,1.6,0.2,3,1.4,3c1.2,0,1.3-1.3,1.3-3c0-1.7-0.2-2.9-1.3-2.9
			C402,493.9,401.7,495,401.7,496.8z"/>
	</g>
	<g>
		<path class="st1" d="M321.1,501.1l-2.3-9h2.1c0.8,4.1,1.2,5.9,1.3,6.9h0c0.3-1.6,1.2-4.8,1.7-6.9h1.7c0.5,1.7,1.4,5.2,1.7,6.8h0
			c0.3-2,1.2-5.4,1.5-6.8h1.9l-2.4,9h-2c-0.5-2-1.3-4.9-1.6-6.4h0c-0.3,1.6-1.1,4.6-1.6,6.4H321.1z"/>
		<path class="st1" d="M333.1,501.1v-6.4c-0.4,0.2-1.1,0.3-1.5,0.4v-1.4c0.8-0.1,1.6-0.6,2.1-1.1h1.3v8.6H333.1z"/>
		<path class="st1" d="M336.7,501.1V501c0-1.5,0.7-2.7,2.5-4c1.2-0.9,1.6-1.2,1.6-1.9c0-0.7-0.4-1.2-1.1-1.2c-0.8,0-1.1,0.5-1.3,1.3
			h-1.8c0.1-1.5,1.1-2.7,3.1-2.7c2.2,0,3,1.3,3,2.6c0,1.2-0.5,1.8-2.1,3c-1.1,0.7-1.5,1.2-1.6,1.6h4.1l-0.2,1.6H336.7z"/>
		<path class="st1" d="M344.1,501.1V501c0-1.5,0.7-2.7,2.5-4c1.2-0.9,1.6-1.2,1.6-1.9c0-0.7-0.4-1.2-1.1-1.2c-0.8,0-1.1,0.5-1.3,1.3
			H344c0.1-1.5,1.1-2.7,3.1-2.7c2.2,0,3,1.3,3,2.6c0,1.2-0.5,1.8-2.1,3c-1.1,0.7-1.5,1.2-1.6,1.6h4.1l-0.2,1.6H344.1z"/>
	</g>
	<g>
		<path class="st1" d="M263.2,501.1l-2.3-9h2.1c0.8,4.1,1.2,5.9,1.3,6.9h0c0.3-1.6,1.2-4.8,1.7-6.9h1.7c0.5,1.7,1.4,5.2,1.7,6.8h0
			c0.3-2,1.2-5.4,1.5-6.8h1.9l-2.4,9h-2c-0.5-2-1.3-4.9-1.6-6.4h0c-0.3,1.6-1.1,4.6-1.6,6.4H263.2z"/>
		<path class="st1" d="M275.2,501.1v-6.4c-0.4,0.2-1.1,0.3-1.5,0.4v-1.4c0.8-0.1,1.6-0.6,2.1-1.1h1.3v8.6H275.2z"/>
		<path class="st1" d="M278.8,501.1V501c0-1.5,0.7-2.7,2.5-4c1.2-0.9,1.6-1.2,1.6-1.9c0-0.7-0.4-1.2-1.1-1.2c-0.8,0-1.1,0.5-1.3,1.3
			h-1.8c0.1-1.5,1.1-2.7,3.1-2.7c2.2,0,3,1.3,3,2.6c0,1.2-0.5,1.8-2.1,3c-1.1,0.7-1.5,1.2-1.6,1.6h4.1l-0.2,1.6H278.8z"/>
		<path class="st1" d="M289.7,501.1v-1.9h-3.9v-1.6l3.6-5h2v5.1h1l-0.2,1.5h-0.9v1.9H289.7z M289.7,496.2c0-0.9,0-1.4,0-2
			c-0.3,0.7-1.5,2.3-2.3,3.5h2.2V496.2z"/>
	</g>
	<g>
		<path class="st1" d="M128,492.1l-2.3-9h2.1c0.8,4.1,1.2,5.9,1.3,6.9h0c0.3-1.6,1.2-4.8,1.7-6.9h1.7c0.5,1.7,1.4,5.2,1.7,6.8h0
			c0.3-2,1.2-5.4,1.5-6.8h1.9l-2.4,9h-2c-0.5-2-1.3-4.9-1.6-6.4h0c-0.3,1.6-1.1,4.6-1.6,6.4H128z"/>
		<path class="st1" d="M140,492.1v-6.4c-0.4,0.2-1.1,0.3-1.5,0.4v-1.4c0.8-0.1,1.6-0.6,2.1-1.1h1.3v8.6H140z"/>
		<path class="st1" d="M143.6,492.1V492c0-1.5,0.7-2.7,2.5-4c1.2-0.9,1.6-1.2,1.6-1.9c0-0.7-0.4-1.2-1.1-1.2c-0.8,0-1.1,0.5-1.3,1.3
			h-1.8c0.1-1.5,1.1-2.7,3.1-2.7c2.2,0,3,1.3,3,2.6c0,1.2-0.5,1.8-2.1,3c-1.1,0.7-1.5,1.2-1.6,1.6h4.1l-0.2,1.6H143.6z"/>
		<path class="st1" d="M150.8,489.7c0-1.1,0.8-1.8,1.4-2c-0.7-0.4-1.1-0.9-1.1-1.8c0-1.5,1.1-2.4,3-2.4c1.8,0,2.9,0.9,2.9,2.4
			c0,1-0.5,1.5-1.1,1.7c0.6,0.2,1.4,0.9,1.4,2.1c0,1.8-1.4,2.7-3.4,2.7C152.2,492.3,150.8,491.4,150.8,489.7z M155.5,489.6
			c0-0.8-0.6-1.2-1.4-1.2c-0.9,0-1.4,0.5-1.4,1.2c0,0.8,0.6,1.3,1.4,1.3C154.9,490.8,155.5,490.5,155.5,489.6z M152.9,485.9
			c0,0.6,0.4,1,1.2,1c0.8,0,1.2-0.3,1.2-1c0-0.6-0.4-1-1.2-1C153.3,484.8,152.9,485.2,152.9,485.9z"/>
	</g>
	<g>
		<path class="st1" d="M129.1,353.1l-2.3-9h2.1c0.8,4.1,1.2,5.9,1.3,6.9h0c0.3-1.6,1.2-4.8,1.7-6.9h1.7c0.5,1.7,1.4,5.2,1.7,6.8h0
			c0.3-2,1.2-5.4,1.5-6.8h1.9l-2.4,9h-2c-0.5-2-1.3-4.9-1.6-6.4h0c-0.3,1.6-1.1,4.6-1.6,6.4H129.1z"/>
		<path class="st1" d="M141,353.1v-6.4c-0.4,0.2-1.1,0.3-1.5,0.4v-1.4c0.8-0.1,1.6-0.6,2.1-1.1h1.3v8.6H141z"/>
		<path class="st1" d="M144.7,353.1V353c0-1.5,0.7-2.7,2.5-4c1.2-0.9,1.6-1.2,1.6-1.9c0-0.7-0.4-1.2-1.1-1.2c-0.8,0-1.1,0.5-1.3,1.3
			h-1.8c0.1-1.5,1.1-2.7,3.1-2.7c2.2,0,3,1.3,3,2.6c0,1.2-0.5,1.8-2.1,3c-1.1,0.7-1.5,1.2-1.6,1.6h4.1l-0.2,1.6H144.7z"/>
		<path class="st1" d="M153.8,351c0.2,0.5,0.5,0.8,1.2,0.8c1.2,0,1.3-1.5,1.4-2.4c-0.4,0.5-1,0.7-1.8,0.7c-1.8,0-2.8-1.2-2.8-2.8
			c0-1.7,1.2-3,3.1-3c2.4,0,3.2,1.9,3.2,4c0,2.4-0.6,4.9-3.3,4.9c-2,0-2.8-1.2-3-2.3H153.8z M153.7,347.3c0,0.9,0.5,1.4,1.3,1.4
			c0.8,0,1.3-0.4,1.3-1.4c0-0.6-0.2-1.5-1.3-1.5C154.2,345.9,153.7,346.5,153.7,347.3z"/>
	</g>
	<g>
		<path class="st1" d="M129.1,207.1l-2.3-9h2.1c0.8,4.1,1.2,5.9,1.3,6.9h0c0.3-1.6,1.2-4.8,1.7-6.9h1.7c0.5,1.7,1.4,5.2,1.7,6.8h0
			c0.3-2,1.2-5.4,1.5-6.8h1.9l-2.4,9h-2c-0.5-2-1.3-4.9-1.6-6.4h0c-0.3,1.6-1.1,4.6-1.6,6.4H129.1z"/>
		<path class="st1" d="M141.1,207.1v-6.4c-0.4,0.2-1.1,0.3-1.5,0.4v-1.4c0.8-0.1,1.6-0.6,2.1-1.1h1.3v8.6H141.1z"/>
		<path class="st1" d="M144.6,200.8c0.1-1.1,0.9-2.4,3-2.4c2,0,2.9,1.1,2.9,2.3c0,1-0.6,1.5-1.1,1.7v0c0.6,0.2,1.4,0.7,1.4,2.1
			c0,1.2-0.8,2.7-3.2,2.7c-2.3,0-3.1-1.4-3.2-2.5h1.8c0.1,0.6,0.5,1.1,1.4,1.1c0.9,0,1.3-0.6,1.3-1.3c0-0.8-0.4-1.3-1.4-1.3h-0.8
			v-1.4h0.7c0.9,0,1.2-0.3,1.2-1c0-0.6-0.3-1-1.1-1c-0.9,0-1.1,0.5-1.2,0.9H144.6z"/>
		<path class="st1" d="M152,200.8c0.1-1.1,0.9-2.4,3-2.4c2,0,2.9,1.1,2.9,2.3c0,1-0.6,1.5-1.1,1.7v0c0.6,0.2,1.4,0.7,1.4,2.1
			c0,1.2-0.8,2.7-3.2,2.7c-2.3,0-3.1-1.4-3.2-2.5h1.8c0.1,0.6,0.5,1.1,1.4,1.1c0.9,0,1.3-0.6,1.3-1.3c0-0.8-0.4-1.3-1.4-1.3h-0.8
			v-1.4h0.7c0.9,0,1.2-0.3,1.2-1c0-0.6-0.3-1-1.1-1c-0.9,0-1.1,0.5-1.2,0.9H152z"/>
	</g>
</g>
</svg>
